<mxfile host="app.diagrams.net" modified="2023-12-09T14:39:35.403Z" agent="Mozilla/5.0 (Windows NT 10.0; Win64; x64) AppleWebKit/537.36 (KHTML, like Gecko) Chrome/120.0.0.0 Safari/537.36" etag="0YSWeMou2L8hOgF1uaKB" version="22.1.7" type="device">
  <diagram name="Страница — 1" id="olaeSTDy_cEwgVv1iC-E">
    <mxGraphModel dx="1434" dy="790" grid="1" gridSize="10" guides="1" tooltips="1" connect="1" arrows="1" fold="1" page="1" pageScale="1" pageWidth="827" pageHeight="1169" math="0" shadow="0">
      <root>
        <mxCell id="0" />
        <mxCell id="1" parent="0" />
        <mxCell id="c8GpA232ON7qav1E12B6-29" value="" style="whiteSpace=wrap;html=1;aspect=fixed;" parent="1" vertex="1">
          <mxGeometry x="130" y="135" width="580" height="580" as="geometry" />
        </mxCell>
        <mxCell id="c8GpA232ON7qav1E12B6-1" value="Пользователь" style="shape=umlActor;verticalLabelPosition=bottom;verticalAlign=top;html=1;outlineConnect=0;" parent="1" vertex="1">
          <mxGeometry x="50" y="340" width="30" height="60" as="geometry" />
        </mxCell>
        <mxCell id="c8GpA232ON7qav1E12B6-2" value="&lt;b&gt;Добавление новой задачи&lt;/b&gt;" style="ellipse;whiteSpace=wrap;html=1;" parent="1" vertex="1">
          <mxGeometry x="190" y="210" width="110" height="70" as="geometry" />
        </mxCell>
        <mxCell id="c8GpA232ON7qav1E12B6-4" value="&lt;b&gt;Удаление существующей задачи&lt;/b&gt;" style="ellipse;whiteSpace=wrap;html=1;" parent="1" vertex="1">
          <mxGeometry x="190" y="300" width="110" height="70" as="geometry" />
        </mxCell>
        <mxCell id="c8GpA232ON7qav1E12B6-5" value="&lt;b&gt;Отметка выполненной задачи&lt;/b&gt;" style="ellipse;whiteSpace=wrap;html=1;" parent="1" vertex="1">
          <mxGeometry x="190" y="390" width="110" height="70" as="geometry" />
        </mxCell>
        <mxCell id="c8GpA232ON7qav1E12B6-7" value="&lt;b&gt;Редактирование дедлайна задачи&lt;/b&gt;" style="ellipse;whiteSpace=wrap;html=1;" parent="1" vertex="1">
          <mxGeometry x="190" y="480" width="110" height="70" as="geometry" />
        </mxCell>
        <mxCell id="c8GpA232ON7qav1E12B6-11" value="" style="endArrow=none;html=1;rounded=0;entryX=0;entryY=0.5;entryDx=0;entryDy=0;exitX=1;exitY=0.3333333333333333;exitDx=0;exitDy=0;exitPerimeter=0;" parent="1" source="c8GpA232ON7qav1E12B6-1" target="c8GpA232ON7qav1E12B6-2" edge="1">
          <mxGeometry width="50" height="50" relative="1" as="geometry">
            <mxPoint x="310" y="430" as="sourcePoint" />
            <mxPoint x="360" y="380" as="targetPoint" />
          </mxGeometry>
        </mxCell>
        <mxCell id="c8GpA232ON7qav1E12B6-12" value="" style="endArrow=none;html=1;rounded=0;entryX=0;entryY=0.5;entryDx=0;entryDy=0;exitX=1;exitY=0.3333333333333333;exitDx=0;exitDy=0;exitPerimeter=0;" parent="1" source="c8GpA232ON7qav1E12B6-1" target="c8GpA232ON7qav1E12B6-4" edge="1">
          <mxGeometry width="50" height="50" relative="1" as="geometry">
            <mxPoint x="100" y="370" as="sourcePoint" />
            <mxPoint x="200" y="255" as="targetPoint" />
          </mxGeometry>
        </mxCell>
        <mxCell id="c8GpA232ON7qav1E12B6-13" value="" style="endArrow=none;html=1;rounded=0;entryX=0;entryY=0.5;entryDx=0;entryDy=0;exitX=1;exitY=0.3333333333333333;exitDx=0;exitDy=0;exitPerimeter=0;" parent="1" source="c8GpA232ON7qav1E12B6-1" target="c8GpA232ON7qav1E12B6-5" edge="1">
          <mxGeometry width="50" height="50" relative="1" as="geometry">
            <mxPoint x="100" y="370" as="sourcePoint" />
            <mxPoint x="199.99999999999994" y="435" as="targetPoint" />
          </mxGeometry>
        </mxCell>
        <mxCell id="c8GpA232ON7qav1E12B6-14" value="" style="endArrow=none;html=1;rounded=0;entryX=0;entryY=0.5;entryDx=0;entryDy=0;exitX=1;exitY=0.3333333333333333;exitDx=0;exitDy=0;exitPerimeter=0;" parent="1" source="c8GpA232ON7qav1E12B6-1" target="c8GpA232ON7qav1E12B6-7" edge="1">
          <mxGeometry width="50" height="50" relative="1" as="geometry">
            <mxPoint x="120" y="390" as="sourcePoint" />
            <mxPoint x="220" y="275" as="targetPoint" />
          </mxGeometry>
        </mxCell>
        <mxCell id="c8GpA232ON7qav1E12B6-16" value="&lt;b&gt;Просмотр всех задач&lt;/b&gt;" style="ellipse;whiteSpace=wrap;html=1;" parent="1" vertex="1">
          <mxGeometry x="190" y="570" width="110" height="70" as="geometry" />
        </mxCell>
        <mxCell id="c8GpA232ON7qav1E12B6-18" value="" style="endArrow=none;html=1;rounded=0;entryX=0;entryY=0.5;entryDx=0;entryDy=0;exitX=1;exitY=0.3333333333333333;exitDx=0;exitDy=0;exitPerimeter=0;" parent="1" source="c8GpA232ON7qav1E12B6-1" target="c8GpA232ON7qav1E12B6-16" edge="1">
          <mxGeometry width="50" height="50" relative="1" as="geometry">
            <mxPoint x="100" y="370" as="sourcePoint" />
            <mxPoint x="200" y="525" as="targetPoint" />
          </mxGeometry>
        </mxCell>
        <mxCell id="c8GpA232ON7qav1E12B6-19" value="Просмотр задач на неделю" style="ellipse;whiteSpace=wrap;html=1;" parent="1" vertex="1">
          <mxGeometry x="410" y="505" width="120" height="80" as="geometry" />
        </mxCell>
        <mxCell id="c8GpA232ON7qav1E12B6-20" value="Просмотр задач с заданным приоритетом" style="ellipse;whiteSpace=wrap;html=1;" parent="1" vertex="1">
          <mxGeometry x="410" y="620" width="120" height="80" as="geometry" />
        </mxCell>
        <mxCell id="c8GpA232ON7qav1E12B6-21" value="" style="endArrow=classic;html=1;rounded=0;exitX=0.005;exitY=0.419;exitDx=0;exitDy=0;dashed=1;exitPerimeter=0;entryX=0.997;entryY=0.518;entryDx=0;entryDy=0;entryPerimeter=0;" parent="1" source="c8GpA232ON7qav1E12B6-20" target="c8GpA232ON7qav1E12B6-16" edge="1">
          <mxGeometry relative="1" as="geometry">
            <mxPoint x="304" y="632.5000000000001" as="sourcePoint" />
            <mxPoint x="414" y="687.5" as="targetPoint" />
          </mxGeometry>
        </mxCell>
        <mxCell id="c8GpA232ON7qav1E12B6-22" value="«extend»" style="edgeLabel;resizable=0;html=1;align=center;verticalAlign=middle;" parent="c8GpA232ON7qav1E12B6-21" connectable="0" vertex="1">
          <mxGeometry relative="1" as="geometry" />
        </mxCell>
        <mxCell id="c8GpA232ON7qav1E12B6-23" value="" style="endArrow=classic;html=1;rounded=0;exitX=0.002;exitY=0.515;exitDx=0;exitDy=0;entryX=0.869;entryY=0.149;entryDx=0;entryDy=0;dashed=1;entryPerimeter=0;exitPerimeter=0;" parent="1" source="c8GpA232ON7qav1E12B6-19" target="c8GpA232ON7qav1E12B6-16" edge="1">
          <mxGeometry relative="1" as="geometry">
            <mxPoint x="310" y="615" as="sourcePoint" />
            <mxPoint x="420" y="670" as="targetPoint" />
          </mxGeometry>
        </mxCell>
        <mxCell id="c8GpA232ON7qav1E12B6-24" value="«extend»" style="edgeLabel;resizable=0;html=1;align=center;verticalAlign=middle;" parent="c8GpA232ON7qav1E12B6-23" connectable="0" vertex="1">
          <mxGeometry relative="1" as="geometry" />
        </mxCell>
        <mxCell id="c8GpA232ON7qav1E12B6-26" value="Разработчик сайта" style="shape=umlActor;verticalLabelPosition=bottom;verticalAlign=top;html=1;outlineConnect=0;" parent="1" vertex="1">
          <mxGeometry x="760" y="340" width="30" height="60" as="geometry" />
        </mxCell>
        <mxCell id="c8GpA232ON7qav1E12B6-27" value="Передача идентификатора элемента-контейнера для встраивания приложения на страницу сайта" style="ellipse;whiteSpace=wrap;html=1;" parent="1" vertex="1">
          <mxGeometry x="450" y="315" width="200" height="110" as="geometry" />
        </mxCell>
        <mxCell id="c8GpA232ON7qav1E12B6-28" value="" style="endArrow=none;html=1;rounded=0;entryX=0;entryY=0.3333333333333333;entryDx=0;entryDy=0;entryPerimeter=0;exitX=1;exitY=0.5;exitDx=0;exitDy=0;" parent="1" source="c8GpA232ON7qav1E12B6-27" target="c8GpA232ON7qav1E12B6-26" edge="1">
          <mxGeometry width="50" height="50" relative="1" as="geometry">
            <mxPoint x="340" y="465" as="sourcePoint" />
            <mxPoint x="390" y="415" as="targetPoint" />
          </mxGeometry>
        </mxCell>
        <mxCell id="c8GpA232ON7qav1E12B6-30" value="«WebApp»&lt;br&gt;Приложение для планирования задач" style="text;html=1;strokeColor=none;fillColor=none;align=left;verticalAlign=middle;whiteSpace=wrap;rounded=0;" parent="1" vertex="1">
          <mxGeometry x="135" y="140" width="220" height="30" as="geometry" />
        </mxCell>
      </root>
    </mxGraphModel>
  </diagram>
</mxfile>
